<?xml version="1.0" encoding="UTF-8" standalone="no"?>
<!DOCTYPE svg PUBLIC "-//W3C//DTD SVG 1.1//EN"
 "http://www.w3.org/Graphics/SVG/1.1/DTD/svg11.dtd">
<!-- Generated by graphviz version 2.43.0 (0)
 -->
<!-- Title: All Pages: 1 -->
<svg width="2045pt" height="783pt"
 viewBox="0.00 0.00 2045.00 783.09" xmlns="http://www.w3.org/2000/svg" xmlns:xlink="http://www.w3.org/1999/xlink">
<g id="graph0" class="graph" transform="scale(1 1) rotate(0) translate(4 779.09)">
<title>All</title>
<polygon fill="white" stroke="transparent" points="-4,4 -4,-779.09 2041,-779.09 2041,4 -4,4"/>
<g id="clust1" class="cluster">
<title>cluster_t2</title>
<polygon fill="#fff0ff" stroke="black" stroke-width="0" points="1046,-616.32 1046,-725.32 1232,-725.32 1232,-616.32 1046,-616.32"/>
<text text-anchor="start" x="1054" y="-698.32" font-family="Times,serif" font-size="30.00">timeline </text>
<text text-anchor="start" x="1190" y="-698.32" font-family="Times,serif" font-weight="bold" font-size="30.00">in</text>
</g>
<g id="clust2" class="cluster">
<title>cluster_p0</title>
<polygon fill="#ffccff" stroke="black" stroke-width="0" points="1104,-624.32 1104,-676.32 1174,-676.32 1174,-624.32 1104,-624.32"/>
</g>
<g id="clust3" class="cluster">
<title>cluster_t0</title>
<polygon fill="#fff0ff" stroke="black" stroke-width="0" points="8,-454.78 8,-767.09 446,-767.09 446,-454.78 8,-454.78"/>
<text text-anchor="start" x="131" y="-740.09" font-family="Times,serif" font-size="30.00">timeline </text>
<text text-anchor="start" x="267" y="-740.09" font-family="Times,serif" font-weight="bold" font-size="30.00">out</text>
</g>
<g id="clust4" class="cluster">
<title>cluster_p1</title>
<polygon fill="#ffccff" stroke="black" stroke-width="0" points="16,-462.78 16,-718.09 438,-718.09 438,-462.78 16,-462.78"/>
<text text-anchor="middle" x="227" y="-702.89" font-family="Times,serif" font-size="14.00">/recSOM</text>
</g>
<g id="clust5" class="cluster">
<title>cluster_t1</title>
<polygon fill="#fff0ff" stroke="black" stroke-width="0" points="454,-8 454,-605.55 1360,-605.55 1360,-8 454,-8"/>
<text text-anchor="start" x="816" y="-578.55" font-family="Times,serif" font-size="30.00">timeline </text>
<text text-anchor="start" x="952" y="-578.55" font-family="Times,serif" font-weight="bold" font-size="30.00">rlx</text>
</g>
<g id="clust6" class="cluster">
<title>cluster_p2</title>
<polygon fill="#ffccff" stroke="black" stroke-width="0" points="462,-16 462,-556.55 1352,-556.55 1352,-16 462,-16"/>
<text text-anchor="middle" x="907" y="-541.35" font-family="Times,serif" font-size="14.00">/recSOM</text>
</g>
<g id="clust7" class="cluster">
<title>cluster_t3</title>
<polygon fill="#fff0ff" stroke="black" stroke-width="0" points="1368,-356.94 1368,-748.32 2029,-748.32 2029,-356.94 1368,-356.94"/>
<text text-anchor="start" x="1600" y="-721.32" font-family="Times,serif" font-size="30.00">timeline </text>
<text text-anchor="start" x="1736" y="-721.32" font-family="Times,serif" font-weight="bold" font-size="30.00">wgt</text>
</g>
<g id="clust8" class="cluster">
<title>cluster_p3</title>
<polygon fill="#ffccff" stroke="black" stroke-width="0" points="1376,-364.94 1376,-699.32 2021,-699.32 2021,-364.94 1376,-364.94"/>
<text text-anchor="middle" x="1698.5" y="-684.12" font-family="Times,serif" font-size="14.00">/recSOM</text>
</g>
<!-- n8 -->
<g id="node1" class="node">
<title>n8</title>
<polygon fill="#ccccff" stroke="black" points="1166,-668.32 1112,-668.32 1112,-632.32 1166,-632.32 1166,-668.32"/>
<text text-anchor="start" x="1132" y="-651.12" font-family="Times,serif" font-weight="bold" font-size="14.00">xi</text>
<text text-anchor="start" x="1126.5" y="-641.92" font-family="Times,serif" font-size="8.00">Scalar</text>
</g>
<!-- u5 -->
<g id="node18" class="node">
<title>u5</title>
<ellipse fill="#ffffaa" stroke="black" cx="1012" cy="-488.78" rx="95.42" ry="36.54"/>
<text text-anchor="start" x="952.5" y="-500.58" font-family="Times,serif" font-weight="bold" font-size="14.00">match&#45;triangle</text>
<text text-anchor="start" x="983" y="-489.78" font-family="Times,serif" font-size="10.00">epsilon = 0</text>
<text text-anchor="start" x="995" y="-479.78" font-family="Times,serif" font-size="10.00">r = 0.3</text>
<text text-anchor="start" x="978.5" y="-469.78" font-family="Times,serif" font-size="10.00">walltime = &#45;1</text>
</g>
<!-- n8&#45;&gt;u5 -->
<g id="edge10" class="edge">
<title>n8&#45;&gt;u5</title>
<path fill="none" stroke="black" d="M1125.41,-632.24C1106.59,-608.6 1071.98,-565.12 1045.92,-532.39"/>
<polygon fill="black" stroke="black" points="1048.46,-529.96 1039.49,-524.31 1042.98,-534.32 1048.46,-529.96"/>
</g>
<!-- u11 -->
<g id="node30" class="node">
<title>u11</title>
<ellipse fill="#ffffaa" stroke="black" cx="1672" cy="-488.78" rx="89.61" ry="43.68"/>
<text text-anchor="start" x="1616.5" y="-505.58" font-family="Times,serif" font-weight="bold" font-size="14.00">learn&#45;triangle</text>
<text text-anchor="start" x="1640" y="-494.78" font-family="Times,serif" font-size="10.00">alpha = 0.05</text>
<text text-anchor="start" x="1643" y="-484.78" font-family="Times,serif" font-size="10.00">epsilon = 0</text>
<text text-anchor="start" x="1652" y="-474.78" font-family="Times,serif" font-size="10.00">r = 0.05</text>
<text text-anchor="start" x="1638.5" y="-464.78" font-family="Times,serif" font-size="10.00">walltime = &#45;1</text>
</g>
<!-- n8&#45;&gt;u11 -->
<g id="edge21" class="edge">
<title>n8&#45;&gt;u11</title>
<path fill="none" stroke="black" d="M1166.14,-644.13C1209.47,-636.09 1297.04,-620.77 1372,-613.55 1394.25,-611.4 1552.89,-615.3 1573,-605.55 1602.16,-591.4 1626.09,-564.27 1643.11,-539.83"/>
<polygon fill="black" stroke="black" points="1646.16,-541.57 1648.84,-531.32 1640.35,-537.66 1646.16,-541.57"/>
</g>
<!-- n0 -->
<g id="node2" class="node">
<title>n0</title>
<polygon fill="#8888ff" stroke="black" points="283.5,-506.78 198.5,-506.78 198.5,-470.78 283.5,-470.78 283.5,-506.78"/>
<text text-anchor="start" x="206.5" y="-489.58" font-family="Times,serif" font-weight="bold" font-size="14.00">BMU @0</text>
<text text-anchor="start" x="228" y="-480.38" font-family="Times,serif" font-size="8.00">Pos1D</text>
</g>
<!-- n11 -->
<g id="node3" class="node">
<title>n11</title>
<polygon fill="#ccccdd" stroke="black" points="430,-668.32 308,-668.32 308,-632.32 430,-632.32 430,-668.32"/>
<text text-anchor="start" x="316" y="-651.12" font-family="Times,serif" font-weight="bold" font-size="14.00">BMU @now&#45;1</text>
<text text-anchor="start" x="356" y="-641.92" font-family="Times,serif" font-size="8.00">Pos1D</text>
</g>
<!-- u7 -->
<g id="node20" class="node">
<title>u7</title>
<ellipse fill="#ffffaa" stroke="black" cx="684" cy="-488.78" rx="95.42" ry="36.54"/>
<text text-anchor="start" x="624.5" y="-500.58" font-family="Times,serif" font-weight="bold" font-size="14.00">match&#45;triangle</text>
<text text-anchor="start" x="655" y="-489.78" font-family="Times,serif" font-size="10.00">epsilon = 0</text>
<text text-anchor="start" x="667" y="-479.78" font-family="Times,serif" font-size="10.00">r = 0.3</text>
<text text-anchor="start" x="650.5" y="-469.78" font-family="Times,serif" font-size="10.00">walltime = &#45;1</text>
</g>
<!-- n11&#45;&gt;u7 -->
<g id="edge14" class="edge">
<title>n11&#45;&gt;u7</title>
<path fill="none" stroke="black" d="M430,-646.59C473.93,-642.33 533.26,-631.72 579,-605.55 609.89,-587.87 636.69,-557.91 655.49,-532.9"/>
<polygon fill="black" stroke="black" points="658.46,-534.77 661.55,-524.63 652.81,-530.63 658.46,-534.77"/>
</g>
<!-- u13 -->
<g id="node32" class="node">
<title>u13</title>
<ellipse fill="#ffffaa" stroke="black" cx="1474" cy="-488.78" rx="89.61" ry="43.68"/>
<text text-anchor="start" x="1418.5" y="-505.58" font-family="Times,serif" font-weight="bold" font-size="14.00">learn&#45;triangle</text>
<text text-anchor="start" x="1442" y="-494.78" font-family="Times,serif" font-size="10.00">alpha = 0.05</text>
<text text-anchor="start" x="1445" y="-484.78" font-family="Times,serif" font-size="10.00">epsilon = 0</text>
<text text-anchor="start" x="1454" y="-474.78" font-family="Times,serif" font-size="10.00">r = 0.05</text>
<text text-anchor="start" x="1440.5" y="-464.78" font-family="Times,serif" font-size="10.00">walltime = &#45;1</text>
</g>
<!-- n11&#45;&gt;u13 -->
<g id="edge26" class="edge">
<title>n11&#45;&gt;u13</title>
<path fill="none" stroke="black" d="M430.11,-645.96C555.61,-639.15 851.48,-623.51 1100,-613.55 1128.44,-612.41 1329.83,-616.72 1356,-605.55 1389.1,-591.41 1418.1,-563.34 1439.06,-538.38"/>
<polygon fill="black" stroke="black" points="1441.96,-540.36 1445.58,-530.4 1436.54,-535.93 1441.96,-540.36"/>
</g>
<!-- n1 -->
<g id="node4" class="node">
<title>n1</title>
<polygon fill="#ccccff" stroke="black" points="180,-506.78 124,-506.78 124,-470.78 180,-470.78 180,-506.78"/>
<text text-anchor="start" x="132" y="-489.58" font-family="Times,serif" font-weight="bold" font-size="14.00">BMU</text>
<text text-anchor="start" x="139" y="-480.38" font-family="Times,serif" font-size="8.00">Pos1D</text>
</g>
<!-- u0 -->
<g id="node5" class="node">
<title>u0</title>
<ellipse fill="#ffffaa" stroke="black" cx="240" cy="-650.32" rx="50.09" ry="18"/>
<text text-anchor="start" x="209.5" y="-647.62" font-family="Times,serif" font-weight="bold" font-size="14.00">random</text>
</g>
<!-- u0&#45;&gt;n0 -->
<g id="edge1" class="edge">
<title>u0&#45;&gt;n0</title>
<path fill="none" stroke="black" d="M240.11,-632.24C240.28,-604.8 240.62,-550.61 240.83,-517.55"/>
<polygon fill="black" stroke="black" points="244.33,-517.23 240.89,-507.21 237.33,-517.19 244.33,-517.23"/>
</g>
<!-- u1 -->
<g id="node6" class="node">
<title>u1</title>
<ellipse fill="#ffffaa" stroke="black" cx="98" cy="-650.32" rx="73.58" ry="36.54"/>
<text text-anchor="start" x="80" y="-662.12" font-family="Times,serif" font-weight="bold" font-size="14.00">copy</text>
<text text-anchor="start" x="69" y="-651.32" font-family="Times,serif" font-size="10.00">epsilon = 0</text>
<text text-anchor="start" x="54" y="-641.32" font-family="Times,serif" font-size="10.00">random&#45;bmu = 0</text>
<text text-anchor="start" x="64.5" y="-631.32" font-family="Times,serif" font-size="10.00">walltime = &#45;1</text>
</g>
<!-- u1&#45;&gt;n1 -->
<g id="edge2" class="edge">
<title>u1&#45;&gt;n1</title>
<path fill="none" stroke="black" d="M109.98,-613.91C119.91,-584.57 133.82,-543.5 142.86,-516.77"/>
<polygon fill="black" stroke="black" points="146.3,-517.53 146.19,-506.94 139.67,-515.29 146.3,-517.53"/>
</g>
<!-- n3 -->
<g id="node7" class="node">
<title>n3</title>
<polygon fill="#8888ff" stroke="black" points="1344.5,-408.94 1237.5,-408.94 1237.5,-372.94 1344.5,-372.94 1344.5,-408.94"/>
<text text-anchor="start" x="1266.5" y="-391.74" font-family="Times,serif" font-weight="bold" font-size="14.00">Ae @0</text>
<text text-anchor="start" x="1245.5" y="-382.54" font-family="Times,serif" font-size="8.00">Map1D&lt;Scalar&gt;=500</text>
</g>
<!-- n4 -->
<g id="node8" class="node">
<title>n4</title>
<polygon fill="#ccccff" stroke="black" points="1109.5,-241.54 1002.5,-241.54 1002.5,-205.54 1109.5,-205.54 1109.5,-241.54"/>
<text text-anchor="start" x="1046" y="-224.34" font-family="Times,serif" font-weight="bold" font-size="14.00">Ae</text>
<text text-anchor="start" x="1010.5" y="-215.14" font-family="Times,serif" font-size="8.00">Map1D&lt;Scalar&gt;=500</text>
</g>
<!-- u9 -->
<g id="node22" class="node">
<title>u9</title>
<ellipse fill="#ffffaa" stroke="black" cx="1185" cy="-132.77" rx="73.58" ry="36.54"/>
<text text-anchor="start" x="1155.5" y="-144.57" font-family="Times,serif" font-weight="bold" font-size="14.00">argmax</text>
<text text-anchor="start" x="1156" y="-133.77" font-family="Times,serif" font-size="10.00">epsilon = 0</text>
<text text-anchor="start" x="1141" y="-123.77" font-family="Times,serif" font-size="10.00">random&#45;bmu = 0</text>
<text text-anchor="start" x="1151.5" y="-113.77" font-family="Times,serif" font-size="10.00">walltime = &#45;1</text>
</g>
<!-- n4&#45;&gt;u9 -->
<g id="edge18" class="edge">
<title>n4&#45;&gt;u9</title>
<path fill="none" stroke="black" d="M1080.87,-205.42C1096.05,-194.98 1116,-181.25 1134.37,-168.61"/>
<polygon fill="black" stroke="black" points="1136.43,-171.44 1142.68,-162.89 1132.46,-165.68 1136.43,-171.44"/>
</g>
<!-- n7 -->
<g id="node9" class="node">
<title>n7</title>
<polygon fill="#8888ff" stroke="black" points="1219.5,-408.94 1112.5,-408.94 1112.5,-372.94 1219.5,-372.94 1219.5,-408.94"/>
<text text-anchor="start" x="1134" y="-391.74" font-family="Times,serif" font-weight="bold" font-size="14.00">Ae&#45;0 @0</text>
<text text-anchor="start" x="1120.5" y="-382.54" font-family="Times,serif" font-size="8.00">Map1D&lt;Scalar&gt;=500</text>
</g>
<!-- n5 -->
<g id="node10" class="node">
<title>n5</title>
<polygon fill="#ccccff" stroke="black" points="1065.5,-408.94 958.5,-408.94 958.5,-372.94 1065.5,-372.94 1065.5,-408.94"/>
<text text-anchor="start" x="994" y="-391.74" font-family="Times,serif" font-weight="bold" font-size="14.00">Ae&#45;0</text>
<text text-anchor="start" x="966.5" y="-382.54" font-family="Times,serif" font-size="8.00">Map1D&lt;Scalar&gt;=500</text>
</g>
<!-- u3 -->
<g id="node16" class="node">
<title>u3</title>
<ellipse fill="#ffffaa" stroke="black" cx="1012" cy="-307.24" rx="58.88" ry="29.9"/>
<text text-anchor="start" x="981" y="-314.04" font-family="Times,serif" font-weight="bold" font-size="14.00">average</text>
<text text-anchor="start" x="983" y="-303.24" font-family="Times,serif" font-size="10.00">epsilon = 0</text>
<text text-anchor="start" x="978.5" y="-293.24" font-family="Times,serif" font-size="10.00">walltime = &#45;1</text>
</g>
<!-- n5&#45;&gt;u3 -->
<g id="edge6" class="edge">
<title>n5&#45;&gt;u3</title>
<path fill="none" stroke="black" d="M1012,-372.61C1012,-365.2 1012,-356.23 1012,-347.37"/>
<polygon fill="black" stroke="black" points="1015.5,-347.11 1012,-337.11 1008.5,-347.11 1015.5,-347.11"/>
</g>
<!-- n10 -->
<g id="node11" class="node">
<title>n10</title>
<polygon fill="#8888ff" stroke="black" points="901.5,-408.94 794.5,-408.94 794.5,-372.94 901.5,-372.94 901.5,-408.94"/>
<text text-anchor="start" x="816" y="-391.74" font-family="Times,serif" font-weight="bold" font-size="14.00">Ae&#45;1 @0</text>
<text text-anchor="start" x="802.5" y="-382.54" font-family="Times,serif" font-size="8.00">Map1D&lt;Scalar&gt;=500</text>
</g>
<!-- n6 -->
<g id="node12" class="node">
<title>n6</title>
<polygon fill="#ccccff" stroke="black" points="757.5,-408.94 650.5,-408.94 650.5,-372.94 757.5,-372.94 757.5,-408.94"/>
<text text-anchor="start" x="686" y="-391.74" font-family="Times,serif" font-weight="bold" font-size="14.00">Ae&#45;1</text>
<text text-anchor="start" x="658.5" y="-382.54" font-family="Times,serif" font-size="8.00">Map1D&lt;Scalar&gt;=500</text>
</g>
<!-- n6&#45;&gt;u3 -->
<g id="edge7" class="edge">
<title>n6&#45;&gt;u3</title>
<path fill="none" stroke="black" d="M742.72,-372.78C756.23,-367.21 771.62,-361.34 786,-356.94 839.16,-340.64 900.96,-327.72 946.49,-319.3"/>
<polygon fill="black" stroke="black" points="947.32,-322.7 956.53,-317.46 946.06,-315.82 947.32,-322.7"/>
</g>
<!-- n13 -->
<g id="node13" class="node">
<title>n13</title>
<polygon fill="#8888ff" stroke="black" points="562.5,-408.94 477.5,-408.94 477.5,-372.94 562.5,-372.94 562.5,-408.94"/>
<text text-anchor="start" x="485.5" y="-391.74" font-family="Times,serif" font-weight="bold" font-size="14.00">BMU @0</text>
<text text-anchor="start" x="507" y="-382.54" font-family="Times,serif" font-size="8.00">Pos1D</text>
</g>
<!-- n2 -->
<g id="node14" class="node">
<title>n2</title>
<polygon fill="#ccccff" stroke="black" points="1300,-60 1244,-60 1244,-24 1300,-24 1300,-60"/>
<text text-anchor="start" x="1252" y="-42.8" font-family="Times,serif" font-weight="bold" font-size="14.00">BMU</text>
<text text-anchor="start" x="1259" y="-33.6" font-family="Times,serif" font-size="8.00">Pos1D</text>
</g>
<!-- n2&#45;&gt;u1 -->
<g id="edge3" class="edge">
<title>n2&#45;&gt;u1</title>
<path fill="none" stroke="black" d="M1243.8,-44.24C1064.96,-52.46 96,-102.56 96,-222.54 96,-391.94 96,-391.94 96,-391.94 96,-465.93 96.84,-551.89 97.43,-603.37"/>
<polygon fill="black" stroke="black" points="93.93,-603.55 97.55,-613.51 100.93,-603.47 93.93,-603.55"/>
</g>
<!-- n2&#45;&gt;u11 -->
<g id="edge23" class="edge">
<title>n2&#45;&gt;u11</title>
<path fill="none" stroke="black" d="M1300.1,-44.44C1371.3,-48.56 1556.74,-62.31 1607,-96 1661.68,-132.66 1684,-156.71 1684,-222.54 1684,-308.24 1684,-308.24 1684,-308.24 1684,-350.74 1680.61,-398.79 1677.43,-434.47"/>
<polygon fill="black" stroke="black" points="1673.93,-434.38 1676.5,-444.66 1680.9,-435.02 1673.93,-434.38"/>
</g>
<!-- n2&#45;&gt;u13 -->
<g id="edge28" class="edge">
<title>n2&#45;&gt;u13</title>
<path fill="none" stroke="black" d="M1300.11,-43.51C1387.09,-46.71 1646,-69.13 1646,-222.54 1646,-308.24 1646,-308.24 1646,-308.24 1646,-353.78 1654.23,-372.43 1627,-408.94 1621.34,-416.53 1583.77,-435.93 1547.29,-453.59"/>
<polygon fill="black" stroke="black" points="1545.55,-450.54 1538.05,-458.03 1548.58,-456.85 1545.55,-450.54"/>
</g>
<!-- u2 -->
<g id="node15" class="node">
<title>u2</title>
<ellipse fill="#ffffaa" stroke="black" cx="1294" cy="-488.78" rx="50.09" ry="18"/>
<text text-anchor="start" x="1263.5" y="-486.08" font-family="Times,serif" font-weight="bold" font-size="14.00">random</text>
</g>
<!-- u2&#45;&gt;n3 -->
<g id="edge4" class="edge">
<title>u2&#45;&gt;n3</title>
<path fill="none" stroke="black" d="M1293.46,-470.64C1293.02,-456.42 1292.38,-435.92 1291.86,-419.41"/>
<polygon fill="black" stroke="black" points="1295.35,-419.13 1291.54,-409.25 1288.36,-419.35 1295.35,-419.13"/>
</g>
<!-- u3&#45;&gt;n4 -->
<g id="edge5" class="edge">
<title>u3&#45;&gt;n4</title>
<path fill="none" stroke="black" d="M1027.14,-278.12C1031.89,-269.31 1037.11,-259.62 1041.79,-250.93"/>
<polygon fill="black" stroke="black" points="1044.95,-252.44 1046.61,-241.98 1038.78,-249.13 1044.95,-252.44"/>
</g>
<!-- u4 -->
<g id="node17" class="node">
<title>u4</title>
<ellipse fill="#ffffaa" stroke="black" cx="1176" cy="-488.78" rx="50.09" ry="18"/>
<text text-anchor="start" x="1145.5" y="-486.08" font-family="Times,serif" font-weight="bold" font-size="14.00">random</text>
</g>
<!-- u4&#45;&gt;n7 -->
<g id="edge8" class="edge">
<title>u4&#45;&gt;n7</title>
<path fill="none" stroke="black" d="M1174.21,-470.64C1172.73,-456.42 1170.59,-435.92 1168.87,-419.41"/>
<polygon fill="black" stroke="black" points="1172.32,-418.83 1167.81,-409.25 1165.36,-419.55 1172.32,-418.83"/>
</g>
<!-- u5&#45;&gt;n5 -->
<g id="edge9" class="edge">
<title>u5&#45;&gt;n5</title>
<path fill="none" stroke="black" d="M1012,-451.82C1012,-441.05 1012,-429.42 1012,-419.31"/>
<polygon fill="black" stroke="black" points="1015.5,-419.03 1012,-409.03 1008.5,-419.03 1015.5,-419.03"/>
</g>
<!-- u6 -->
<g id="node19" class="node">
<title>u6</title>
<ellipse fill="#ffffaa" stroke="black" cx="848" cy="-488.78" rx="50.09" ry="18"/>
<text text-anchor="start" x="817.5" y="-486.08" font-family="Times,serif" font-weight="bold" font-size="14.00">random</text>
</g>
<!-- u6&#45;&gt;n10 -->
<g id="edge12" class="edge">
<title>u6&#45;&gt;n10</title>
<path fill="none" stroke="black" d="M848,-470.64C848,-456.42 848,-435.92 848,-419.41"/>
<polygon fill="black" stroke="black" points="851.5,-419.25 848,-409.25 844.5,-419.25 851.5,-419.25"/>
</g>
<!-- u7&#45;&gt;n6 -->
<g id="edge13" class="edge">
<title>u7&#45;&gt;n6</title>
<path fill="none" stroke="black" d="M691.45,-452.09C693.72,-441.19 696.19,-429.38 698.32,-419.14"/>
<polygon fill="black" stroke="black" points="701.79,-419.64 700.41,-409.13 694.94,-418.21 701.79,-419.64"/>
</g>
<!-- u8 -->
<g id="node21" class="node">
<title>u8</title>
<ellipse fill="#ffffaa" stroke="black" cx="520" cy="-488.78" rx="50.09" ry="18"/>
<text text-anchor="start" x="489.5" y="-486.08" font-family="Times,serif" font-weight="bold" font-size="14.00">random</text>
</g>
<!-- u8&#45;&gt;n13 -->
<g id="edge16" class="edge">
<title>u8&#45;&gt;n13</title>
<path fill="none" stroke="black" d="M520,-470.64C520,-456.42 520,-435.92 520,-419.41"/>
<polygon fill="black" stroke="black" points="523.5,-419.25 520,-409.25 516.5,-419.25 523.5,-419.25"/>
</g>
<!-- u9&#45;&gt;n2 -->
<g id="edge17" class="edge">
<title>u9&#45;&gt;n2</title>
<path fill="none" stroke="black" d="M1216.66,-99.47C1227.03,-88.88 1238.38,-77.3 1248.09,-67.4"/>
<polygon fill="black" stroke="black" points="1250.64,-69.79 1255.14,-60.2 1245.64,-64.89 1250.64,-69.79"/>
</g>
<!-- n14 -->
<g id="node23" class="node">
<title>n14</title>
<polygon fill="#8888ff" stroke="black" points="2013.5,-506.78 1906.5,-506.78 1906.5,-470.78 2013.5,-470.78 2013.5,-506.78"/>
<text text-anchor="start" x="1926" y="-489.58" font-family="Times,serif" font-weight="bold" font-size="14.00">We&#45;0 @0</text>
<text text-anchor="start" x="1914.5" y="-480.38" font-family="Times,serif" font-size="8.00">Map1D&lt;Scalar&gt;=500</text>
</g>
<!-- n9 -->
<g id="node24" class="node">
<title>n9</title>
<polygon fill="#ccccdd" stroke="black" points="1697,-668.32 1575,-668.32 1575,-632.32 1697,-632.32 1697,-668.32"/>
<text text-anchor="start" x="1583" y="-651.12" font-family="Times,serif" font-weight="bold" font-size="14.00">We&#45;0 @now&#45;1</text>
<text text-anchor="start" x="1590.5" y="-641.92" font-family="Times,serif" font-size="8.00">Map1D&lt;Scalar&gt;=500</text>
</g>
<!-- n9&#45;&gt;u5 -->
<g id="edge11" class="edge">
<title>n9&#45;&gt;u5</title>
<path fill="none" stroke="black" d="M1595.23,-632.3C1575.84,-625.05 1552.1,-617.39 1530,-613.55 1507.39,-609.61 1137.89,-615.05 1117,-605.55 1083.79,-590.45 1056.5,-559.27 1038.07,-533.08"/>
<polygon fill="black" stroke="black" points="1040.94,-531.06 1032.41,-524.77 1035.15,-535.01 1040.94,-531.06"/>
</g>
<!-- n9&#45;&gt;u11 -->
<g id="edge22" class="edge">
<title>n9&#45;&gt;u11</title>
<path fill="none" stroke="black" d="M1639.85,-632.24C1644.66,-610.92 1653.12,-573.44 1660.15,-542.28"/>
<polygon fill="black" stroke="black" points="1663.59,-542.94 1662.38,-532.41 1656.76,-541.4 1663.59,-542.94"/>
</g>
<!-- n15 -->
<g id="node25" class="node">
<title>n15</title>
<polygon fill="#ccccff" stroke="black" points="1617.5,-408.94 1510.5,-408.94 1510.5,-372.94 1617.5,-372.94 1617.5,-408.94"/>
<text text-anchor="start" x="1544" y="-391.74" font-family="Times,serif" font-weight="bold" font-size="14.00">We&#45;0</text>
<text text-anchor="start" x="1518.5" y="-382.54" font-family="Times,serif" font-size="8.00">Map1D&lt;Scalar&gt;=500</text>
</g>
<!-- n16 -->
<g id="node26" class="node">
<title>n16</title>
<polygon fill="#8888ff" stroke="black" points="1888,-506.78 1780,-506.78 1780,-470.78 1888,-470.78 1888,-506.78"/>
<text text-anchor="start" x="1800" y="-489.58" font-family="Times,serif" font-weight="bold" font-size="14.00">We&#45;1 @0</text>
<text text-anchor="start" x="1788" y="-480.38" font-family="Times,serif" font-size="8.00">Map1D&lt;Pos1D&gt;=500</text>
</g>
<!-- n12 -->
<g id="node27" class="node">
<title>n12</title>
<polygon fill="#ccccdd" stroke="black" points="1521,-668.32 1399,-668.32 1399,-632.32 1521,-632.32 1521,-668.32"/>
<text text-anchor="start" x="1407" y="-651.12" font-family="Times,serif" font-weight="bold" font-size="14.00">We&#45;1 @now&#45;1</text>
<text text-anchor="start" x="1414" y="-641.92" font-family="Times,serif" font-size="8.00">Map1D&lt;Pos1D&gt;=500</text>
</g>
<!-- n12&#45;&gt;u7 -->
<g id="edge15" class="edge">
<title>n12&#45;&gt;u7</title>
<path fill="none" stroke="black" d="M1398.85,-639.67C1341.86,-631.12 1254.41,-619.16 1178,-613.55 1156.44,-611.96 808.67,-614.51 789,-605.55 755.8,-590.43 728.51,-559.26 710.08,-533.06"/>
<polygon fill="black" stroke="black" points="712.94,-531.05 704.41,-524.76 707.16,-534.99 712.94,-531.05"/>
</g>
<!-- n12&#45;&gt;u13 -->
<g id="edge27" class="edge">
<title>n12&#45;&gt;u13</title>
<path fill="none" stroke="black" d="M1461.5,-632.24C1463.36,-611.08 1466.61,-574.02 1469.33,-543"/>
<polygon fill="black" stroke="black" points="1472.84,-543.01 1470.23,-532.75 1465.87,-542.4 1472.84,-543.01"/>
</g>
<!-- n17 -->
<g id="node28" class="node">
<title>n17</title>
<polygon fill="#ccccff" stroke="black" points="1492,-408.94 1384,-408.94 1384,-372.94 1492,-372.94 1492,-408.94"/>
<text text-anchor="start" x="1418" y="-391.74" font-family="Times,serif" font-weight="bold" font-size="14.00">We&#45;1</text>
<text text-anchor="start" x="1392" y="-382.54" font-family="Times,serif" font-size="8.00">Map1D&lt;Pos1D&gt;=500</text>
</g>
<!-- u10 -->
<g id="node29" class="node">
<title>u10</title>
<ellipse fill="#ffffaa" stroke="black" cx="1960" cy="-650.32" rx="50.09" ry="18"/>
<text text-anchor="start" x="1929.5" y="-647.62" font-family="Times,serif" font-weight="bold" font-size="14.00">random</text>
</g>
<!-- u10&#45;&gt;n14 -->
<g id="edge19" class="edge">
<title>u10&#45;&gt;n14</title>
<path fill="none" stroke="black" d="M1960,-632.24C1960,-604.8 1960,-550.61 1960,-517.55"/>
<polygon fill="black" stroke="black" points="1963.5,-517.21 1960,-507.21 1956.5,-517.21 1963.5,-517.21"/>
</g>
<!-- u11&#45;&gt;n15 -->
<g id="edge20" class="edge">
<title>u11&#45;&gt;n15</title>
<path fill="none" stroke="black" d="M1629.32,-449.9C1616.38,-438.42 1602.54,-426.14 1590.94,-415.85"/>
<polygon fill="black" stroke="black" points="1593.11,-413.09 1583.31,-409.07 1588.47,-418.33 1593.11,-413.09"/>
</g>
<!-- u12 -->
<g id="node31" class="node">
<title>u12</title>
<ellipse fill="#ffffaa" stroke="black" cx="1834" cy="-650.32" rx="50.09" ry="18"/>
<text text-anchor="start" x="1803.5" y="-647.62" font-family="Times,serif" font-weight="bold" font-size="14.00">random</text>
</g>
<!-- u12&#45;&gt;n16 -->
<g id="edge24" class="edge">
<title>u12&#45;&gt;n16</title>
<path fill="none" stroke="black" d="M1834,-632.24C1834,-604.8 1834,-550.61 1834,-517.55"/>
<polygon fill="black" stroke="black" points="1837.5,-517.21 1834,-507.21 1830.5,-517.21 1837.5,-517.21"/>
</g>
<!-- u13&#45;&gt;n17 -->
<g id="edge25" class="edge">
<title>u13&#45;&gt;n17</title>
<path fill="none" stroke="black" d="M1458.11,-445.46C1454.68,-436.33 1451.15,-426.93 1448.02,-418.61"/>
<polygon fill="black" stroke="black" points="1451.23,-417.2 1444.44,-409.07 1444.68,-419.66 1451.23,-417.2"/>
</g>
</g>
</svg>
