<?xml version="1.0" encoding="UTF-8" standalone="no"?>
<!DOCTYPE svg PUBLIC "-//W3C//DTD SVG 1.1//EN"
 "http://www.w3.org/Graphics/SVG/1.1/DTD/svg11.dtd">
<!-- Generated by graphviz version 2.43.0 (0)
 -->
<!-- Title: All Pages: 1 -->
<svg width="1169pt" height="844pt"
 viewBox="0.00 0.00 1169.00 843.69" xmlns="http://www.w3.org/2000/svg" xmlns:xlink="http://www.w3.org/1999/xlink">
<g id="graph0" class="graph" transform="scale(1 1) rotate(0) translate(4 839.69)">
<title>All</title>
<polygon fill="white" stroke="transparent" points="-4,4 -4,-839.69 1165,-839.69 1165,4 -4,4"/>
<g id="clust1" class="cluster">
<title>cluster_t2</title>
<polygon fill="#fff0ff" stroke="black" stroke-width="0" points="779,-695.69 779,-804.69 965,-804.69 965,-695.69 779,-695.69"/>
<text text-anchor="start" x="787" y="-777.69" font-family="Times,serif" font-size="30.00">timeline </text>
<text text-anchor="start" x="923" y="-777.69" font-family="Times,serif" font-weight="bold" font-size="30.00">in</text>
</g>
<g id="clust2" class="cluster">
<title>cluster_p0</title>
<polygon fill="#ffccff" stroke="black" stroke-width="0" points="835,-703.69 835,-755.69 905,-755.69 905,-703.69 835,-703.69"/>
</g>
<g id="clust3" class="cluster">
<title>cluster_t0</title>
<polygon fill="#fff0ff" stroke="black" stroke-width="0" points="689,-8 689,-249.54 987,-249.54 987,-8 689,-8"/>
<text text-anchor="start" x="742" y="-222.54" font-family="Times,serif" font-size="30.00">timeline </text>
<text text-anchor="start" x="878" y="-222.54" font-family="Times,serif" font-weight="bold" font-size="30.00">out</text>
</g>
<g id="clust4" class="cluster">
<title>cluster_p1</title>
<polygon fill="#ffccff" stroke="black" stroke-width="0" points="697,-16 697,-200.54 979,-200.54 979,-16 697,-16"/>
<text text-anchor="middle" x="838" y="-185.34" font-family="Times,serif" font-size="14.00">/SOM</text>
</g>
<g id="clust5" class="cluster">
<title>cluster_t1</title>
<polygon fill="#fff0ff" stroke="black" stroke-width="0" points="683,-257.54 683,-687.69 1153,-687.69 1153,-257.54 683,-257.54"/>
<text text-anchor="start" x="827" y="-660.69" font-family="Times,serif" font-size="30.00">timeline </text>
<text text-anchor="start" x="963" y="-660.69" font-family="Times,serif" font-weight="bold" font-size="30.00">rlx</text>
</g>
<g id="clust6" class="cluster">
<title>cluster_p2</title>
<polygon fill="#ffccff" stroke="black" stroke-width="0" points="691,-265.54 691,-638.69 1145,-638.69 1145,-265.54 691,-265.54"/>
<text text-anchor="middle" x="918" y="-623.49" font-family="Times,serif" font-size="14.00">/SOM</text>
</g>
<g id="clust7" class="cluster">
<title>cluster_t4</title>
<polygon fill="#fff0ff" stroke="black" stroke-width="0" points="8,-439.08 8,-680.62 233,-680.62 233,-439.08 8,-439.08"/>
<text text-anchor="start" x="16" y="-653.62" font-family="Times,serif" font-size="30.00">timeline </text>
<text text-anchor="start" x="152" y="-653.62" font-family="Times,serif" font-weight="bold" font-size="30.00">save</text>
</g>
<g id="clust8" class="cluster">
<title>cluster_p3</title>
<polygon fill="#ffccff" stroke="black" stroke-width="0" points="91,-447.08 91,-631.62 225,-631.62 225,-447.08 91,-447.08"/>
<text text-anchor="middle" x="158" y="-616.42" font-family="Times,serif" font-size="14.00">/SOM</text>
</g>
<g id="clust9" class="cluster">
<title>cluster_t3</title>
<polygon fill="#fff0ff" stroke="black" stroke-width="0" points="241,-439.08 241,-827.69 675,-827.69 675,-439.08 241,-439.08"/>
<text text-anchor="start" x="359.5" y="-800.69" font-family="Times,serif" font-size="30.00">timeline </text>
<text text-anchor="start" x="495.5" y="-800.69" font-family="Times,serif" font-weight="bold" font-size="30.00">wgt</text>
</g>
<g id="clust10" class="cluster">
<title>cluster_p4</title>
<polygon fill="#ffccff" stroke="black" stroke-width="0" points="249,-447.08 249,-778.69 667,-778.69 667,-447.08 249,-447.08"/>
<text text-anchor="middle" x="458" y="-763.49" font-family="Times,serif" font-size="14.00">/SOM</text>
</g>
<!-- n5 -->
<g id="node1" class="node">
<title>n5</title>
<polygon fill="#ccccff" stroke="black" points="897,-747.69 843,-747.69 843,-711.69 897,-711.69 897,-747.69"/>
<text text-anchor="start" x="863" y="-730.49" font-family="Times,serif" font-weight="bold" font-size="14.00">xi</text>
<text text-anchor="start" x="852.5" y="-721.29" font-family="Times,serif" font-size="8.00">Array=2</text>
</g>
<!-- u3 -->
<g id="node11" class="node">
<title>u3</title>
<ellipse fill="#ffffaa" stroke="black" cx="918" cy="-570.92" rx="101.23" ry="36.54"/>
<text text-anchor="start" x="854.5" y="-582.72" font-family="Times,serif" font-weight="bold" font-size="14.00">match&#45;gaussian</text>
<text text-anchor="start" x="889" y="-571.92" font-family="Times,serif" font-size="10.00">epsilon = 0</text>
<text text-anchor="start" x="887.5" y="-561.92" font-family="Times,serif" font-size="10.00">sigma = 0.1</text>
<text text-anchor="start" x="884.5" y="-551.92" font-family="Times,serif" font-size="10.00">walltime = &#45;1</text>
</g>
<!-- n5&#45;&gt;u3 -->
<g id="edge6" class="edge">
<title>n5&#45;&gt;u3</title>
<path fill="none" stroke="black" d="M875.23,-711.61C882.09,-689.2 894.4,-649.01 904.05,-617.47"/>
<polygon fill="black" stroke="black" points="907.5,-618.15 907.09,-607.57 900.81,-616.1 907.5,-618.15"/>
</g>
<!-- u8 -->
<g id="node21" class="node">
<title>u8</title>
<ellipse fill="#ffffaa" stroke="black" cx="569" cy="-570.92" rx="89.61" ry="43.68"/>
<text text-anchor="start" x="513.5" y="-587.72" font-family="Times,serif" font-weight="bold" font-size="14.00">learn&#45;triangle</text>
<text text-anchor="start" x="540" y="-576.92" font-family="Times,serif" font-size="10.00">alpha = 0.1</text>
<text text-anchor="start" x="540" y="-566.92" font-family="Times,serif" font-size="10.00">epsilon = 0</text>
<text text-anchor="start" x="552" y="-556.92" font-family="Times,serif" font-size="10.00">r = 0.2</text>
<text text-anchor="start" x="535.5" y="-546.92" font-family="Times,serif" font-size="10.00">walltime = &#45;1</text>
</g>
<!-- n5&#45;&gt;u8 -->
<g id="edge15" class="edge">
<title>n5&#45;&gt;u8</title>
<path fill="none" stroke="black" d="M842.94,-727.25C805.73,-724.28 737.63,-715.22 687,-687.69 656.06,-670.86 627.67,-643.56 606.49,-619.7"/>
<polygon fill="black" stroke="black" points="609.08,-617.34 599.87,-612.09 603.79,-621.93 609.08,-617.34"/>
</g>
<!-- n0 -->
<g id="node2" class="node">
<title>n0</title>
<polygon fill="#8888ff" stroke="black" points="963.5,-60 878.5,-60 878.5,-24 963.5,-24 963.5,-60"/>
<text text-anchor="start" x="886.5" y="-42.8" font-family="Times,serif" font-weight="bold" font-size="14.00">BMU @0</text>
<text text-anchor="start" x="908" y="-33.6" font-family="Times,serif" font-size="8.00">Pos2D</text>
</g>
<!-- n1 -->
<g id="node3" class="node">
<title>n1</title>
<polygon fill="#ccccff" stroke="black" points="807,-60 751,-60 751,-24 807,-24 807,-60"/>
<text text-anchor="start" x="759" y="-42.8" font-family="Times,serif" font-weight="bold" font-size="14.00">BMU</text>
<text text-anchor="start" x="766" y="-33.6" font-family="Times,serif" font-size="8.00">Pos2D</text>
</g>
<!-- u0 -->
<g id="node4" class="node">
<title>u0</title>
<ellipse fill="#ffffaa" stroke="black" cx="921" cy="-132.77" rx="50.09" ry="18"/>
<text text-anchor="start" x="890.5" y="-130.07" font-family="Times,serif" font-weight="bold" font-size="14.00">random</text>
</g>
<!-- u0&#45;&gt;n0 -->
<g id="edge1" class="edge">
<title>u0&#45;&gt;n0</title>
<path fill="none" stroke="black" d="M921,-114.65C921,-102.13 921,-84.87 921,-70.43"/>
<polygon fill="black" stroke="black" points="924.5,-70.06 921,-60.06 917.5,-70.06 924.5,-70.06"/>
</g>
<!-- u1 -->
<g id="node5" class="node">
<title>u1</title>
<ellipse fill="#ffffaa" stroke="black" cx="779" cy="-132.77" rx="73.58" ry="36.54"/>
<text text-anchor="start" x="761" y="-144.57" font-family="Times,serif" font-weight="bold" font-size="14.00">copy</text>
<text text-anchor="start" x="750" y="-133.77" font-family="Times,serif" font-size="10.00">epsilon = 0</text>
<text text-anchor="start" x="735" y="-123.77" font-family="Times,serif" font-size="10.00">random&#45;bmu = 0</text>
<text text-anchor="start" x="745.5" y="-113.77" font-family="Times,serif" font-size="10.00">walltime = &#45;1</text>
</g>
<!-- u1&#45;&gt;n1 -->
<g id="edge2" class="edge">
<title>u1&#45;&gt;n1</title>
<path fill="none" stroke="black" d="M779,-95.92C779,-87.35 779,-78.35 779,-70.24"/>
<polygon fill="black" stroke="black" points="782.5,-70.22 779,-60.22 775.5,-70.22 782.5,-70.22"/>
</g>
<!-- n3 -->
<g id="node6" class="node">
<title>n3</title>
<polygon fill="#8888ff" stroke="black" points="1137,-491.08 1035,-491.08 1035,-455.08 1137,-455.08 1137,-491.08"/>
<text text-anchor="start" x="1054" y="-473.88" font-family="Times,serif" font-weight="bold" font-size="14.00">Ae&#45;0 @0</text>
<text text-anchor="start" x="1043" y="-464.68" font-family="Times,serif" font-size="8.00">Map2D&lt;Scalar&gt;=20</text>
</g>
<!-- n4 -->
<g id="node7" class="node">
<title>n4</title>
<polygon fill="#ccccff" stroke="black" points="941,-491.08 839,-491.08 839,-455.08 941,-455.08 941,-491.08"/>
<text text-anchor="start" x="872" y="-473.88" font-family="Times,serif" font-weight="bold" font-size="14.00">Ae&#45;0</text>
<text text-anchor="start" x="847" y="-464.68" font-family="Times,serif" font-size="8.00">Map2D&lt;Scalar&gt;=20</text>
</g>
<!-- u5 -->
<g id="node13" class="node">
<title>u5</title>
<ellipse fill="#ffffaa" stroke="black" cx="831" cy="-382.31" rx="73.58" ry="36.54"/>
<text text-anchor="start" x="801.5" y="-394.11" font-family="Times,serif" font-weight="bold" font-size="14.00">argmax</text>
<text text-anchor="start" x="802" y="-383.31" font-family="Times,serif" font-size="10.00">epsilon = 0</text>
<text text-anchor="start" x="787" y="-373.31" font-family="Times,serif" font-size="10.00">random&#45;bmu = 0</text>
<text text-anchor="start" x="797.5" y="-363.31" font-family="Times,serif" font-size="10.00">walltime = &#45;1</text>
</g>
<!-- n4&#45;&gt;u5 -->
<g id="edge10" class="edge">
<title>n4&#45;&gt;u5</title>
<path fill="none" stroke="black" d="M878.62,-454.96C873.13,-446.7 866.27,-436.37 859.48,-426.15"/>
<polygon fill="black" stroke="black" points="862.27,-424.04 853.82,-417.65 856.44,-427.91 862.27,-424.04"/>
</g>
<!-- n7 -->
<g id="node8" class="node">
<title>n7</title>
<polygon fill="#8888ff" stroke="black" points="791.5,-491.08 706.5,-491.08 706.5,-455.08 791.5,-455.08 791.5,-491.08"/>
<text text-anchor="start" x="714.5" y="-473.88" font-family="Times,serif" font-weight="bold" font-size="14.00">BMU @0</text>
<text text-anchor="start" x="736" y="-464.68" font-family="Times,serif" font-size="8.00">Pos2D</text>
</g>
<!-- n2 -->
<g id="node9" class="node">
<title>n2</title>
<polygon fill="#ccccff" stroke="black" points="807,-309.54 751,-309.54 751,-273.54 807,-273.54 807,-309.54"/>
<text text-anchor="start" x="759" y="-292.34" font-family="Times,serif" font-weight="bold" font-size="14.00">BMU</text>
<text text-anchor="start" x="766" y="-283.14" font-family="Times,serif" font-size="8.00">Pos2D</text>
</g>
<!-- n2&#45;&gt;u1 -->
<g id="edge3" class="edge">
<title>n2&#45;&gt;u1</title>
<path fill="none" stroke="black" d="M779,-273.46C779,-251.22 779,-211.46 779,-180.03"/>
<polygon fill="black" stroke="black" points="782.5,-179.73 779,-169.73 775.5,-179.73 782.5,-179.73"/>
</g>
<!-- n2&#45;&gt;u8 -->
<g id="edge17" class="edge">
<title>n2&#45;&gt;u8</title>
<path fill="none" stroke="black" d="M766.92,-309.79C742.45,-344.55 685.04,-425.33 634,-491.08 626.1,-501.25 617.46,-511.99 609.12,-522.17"/>
<polygon fill="black" stroke="black" points="606.18,-520.23 602.53,-530.18 611.59,-524.68 606.18,-520.23"/>
</g>
<!-- u2 -->
<g id="node10" class="node">
<title>u2</title>
<ellipse fill="#ffffaa" stroke="black" cx="1087" cy="-570.92" rx="50.09" ry="18"/>
<text text-anchor="start" x="1056.5" y="-568.22" font-family="Times,serif" font-weight="bold" font-size="14.00">random</text>
</g>
<!-- u2&#45;&gt;n3 -->
<g id="edge4" class="edge">
<title>u2&#45;&gt;n3</title>
<path fill="none" stroke="black" d="M1086.82,-552.78C1086.67,-538.56 1086.46,-518.07 1086.29,-501.56"/>
<polygon fill="black" stroke="black" points="1089.78,-501.35 1086.18,-491.39 1082.79,-501.42 1089.78,-501.35"/>
</g>
<!-- u3&#45;&gt;n4 -->
<g id="edge5" class="edge">
<title>u3&#45;&gt;n4</title>
<path fill="none" stroke="black" d="M907.57,-534.23C904.36,-523.21 900.87,-511.27 897.85,-500.96"/>
<polygon fill="black" stroke="black" points="901.19,-499.89 895.02,-491.27 894.47,-501.86 901.19,-499.89"/>
</g>
<!-- u4 -->
<g id="node12" class="node">
<title>u4</title>
<ellipse fill="#ffffaa" stroke="black" cx="749" cy="-570.92" rx="50.09" ry="18"/>
<text text-anchor="start" x="718.5" y="-568.22" font-family="Times,serif" font-weight="bold" font-size="14.00">random</text>
</g>
<!-- u4&#45;&gt;n7 -->
<g id="edge8" class="edge">
<title>u4&#45;&gt;n7</title>
<path fill="none" stroke="black" d="M749,-552.78C749,-538.56 749,-518.07 749,-501.56"/>
<polygon fill="black" stroke="black" points="752.5,-501.39 749,-491.39 745.5,-501.39 752.5,-501.39"/>
</g>
<!-- u5&#45;&gt;n2 -->
<g id="edge9" class="edge">
<title>u5&#45;&gt;n2</title>
<path fill="none" stroke="black" d="M810.75,-346.73C805.24,-337.34 799.38,-327.33 794.21,-318.5"/>
<polygon fill="black" stroke="black" points="797.19,-316.66 789.11,-309.8 791.15,-320.2 797.19,-316.66"/>
</g>
<!-- n8 -->
<g id="node14" class="node">
<title>n8</title>
<polygon fill="#ccccff" stroke="black" points="214,-491.08 102,-491.08 102,-455.08 214,-455.08 214,-491.08"/>
<text text-anchor="start" x="138" y="-473.88" font-family="Times,serif" font-weight="bold" font-size="14.00">We&#45;0</text>
<text text-anchor="start" x="110" y="-464.68" font-family="Times,serif" font-size="8.00">Map2D&lt;Array=2&gt;=20</text>
</g>
<!-- u6 -->
<g id="node15" class="node">
<title>u6</title>
<ellipse fill="#ffffaa" stroke="black" cx="158" cy="-570.92" rx="58.88" ry="29.9"/>
<text text-anchor="start" x="140" y="-577.72" font-family="Times,serif" font-weight="bold" font-size="14.00">copy</text>
<text text-anchor="start" x="129" y="-566.92" font-family="Times,serif" font-size="10.00">epsilon = 0</text>
<text text-anchor="start" x="124.5" y="-556.92" font-family="Times,serif" font-size="10.00">walltime = &#45;1</text>
</g>
<!-- u6&#45;&gt;n8 -->
<g id="edge11" class="edge">
<title>u6&#45;&gt;n8</title>
<path fill="none" stroke="black" d="M158,-541.16C158,-528.54 158,-513.79 158,-501.35"/>
<polygon fill="black" stroke="black" points="161.5,-501.11 158,-491.11 154.5,-501.11 161.5,-501.11"/>
</g>
<!-- n10 -->
<g id="node16" class="node">
<title>n10</title>
<polygon fill="#8888ff" stroke="black" points="461,-588.92 349,-588.92 349,-552.92 461,-552.92 461,-588.92"/>
<text text-anchor="start" x="371" y="-571.72" font-family="Times,serif" font-weight="bold" font-size="14.00">We&#45;0 @0</text>
<text text-anchor="start" x="357" y="-562.52" font-family="Times,serif" font-size="8.00">Map2D&lt;Array=2&gt;=20</text>
</g>
<!-- n6 -->
<g id="node17" class="node">
<title>n6</title>
<polygon fill="#ccccdd" stroke="black" points="659,-747.69 537,-747.69 537,-711.69 659,-711.69 659,-747.69"/>
<text text-anchor="start" x="545" y="-730.49" font-family="Times,serif" font-weight="bold" font-size="14.00">We&#45;0 @now&#45;1</text>
<text text-anchor="start" x="550" y="-721.29" font-family="Times,serif" font-size="8.00">Map2D&lt;Array=2&gt;=20</text>
</g>
<!-- n6&#45;&gt;u3 -->
<g id="edge7" class="edge">
<title>n6&#45;&gt;u3</title>
<path fill="none" stroke="black" d="M659.26,-726.55C703.04,-722.76 762.08,-712.89 808,-687.69 840.02,-670.12 868.22,-639.97 888.04,-614.85"/>
<polygon fill="black" stroke="black" points="890.85,-616.94 894.18,-606.89 885.3,-612.67 890.85,-616.94"/>
</g>
<!-- n6&#45;&gt;u8 -->
<g id="edge16" class="edge">
<title>n6&#45;&gt;u8</title>
<path fill="none" stroke="black" d="M594.84,-711.61C591,-690.87 584.35,-654.88 578.75,-624.63"/>
<polygon fill="black" stroke="black" points="582.16,-623.82 576.9,-614.62 575.28,-625.09 582.16,-623.82"/>
</g>
<!-- n11 -->
<g id="node18" class="node">
<title>n11</title>
<polygon fill="#ccccff" stroke="black" points="625,-491.08 513,-491.08 513,-455.08 625,-455.08 625,-491.08"/>
<text text-anchor="start" x="549" y="-473.88" font-family="Times,serif" font-weight="bold" font-size="14.00">We&#45;0</text>
<text text-anchor="start" x="521" y="-464.68" font-family="Times,serif" font-size="8.00">Map2D&lt;Array=2&gt;=20</text>
</g>
<!-- n9 -->
<g id="node19" class="node">
<title>n9</title>
<polygon fill="#ccccff" stroke="black" points="400.5,-747.69 257.5,-747.69 257.5,-711.69 400.5,-711.69 400.5,-747.69"/>
<text text-anchor="start" x="265.5" y="-730.49" font-family="Times,serif" font-weight="bold" font-size="14.00">We&#45;0 @now*500</text>
<text text-anchor="start" x="281" y="-721.29" font-family="Times,serif" font-size="8.00">Map2D&lt;Array=2&gt;=20</text>
</g>
<!-- n9&#45;&gt;u6 -->
<g id="edge12" class="edge">
<title>n9&#45;&gt;u6</title>
<path fill="none" stroke="black" d="M284.36,-711.68C270.91,-705.34 256.64,-697.3 245,-687.69 218.06,-665.45 194.74,-633.25 179.04,-608.45"/>
<polygon fill="black" stroke="black" points="181.85,-606.34 173.61,-599.68 175.9,-610.03 181.85,-606.34"/>
</g>
<!-- u7 -->
<g id="node20" class="node">
<title>u7</title>
<ellipse fill="#ffffaa" stroke="black" cx="469" cy="-729.69" rx="50.09" ry="18"/>
<text text-anchor="start" x="438.5" y="-726.99" font-family="Times,serif" font-weight="bold" font-size="14.00">random</text>
</g>
<!-- u7&#45;&gt;n10 -->
<g id="edge13" class="edge">
<title>u7&#45;&gt;n10</title>
<path fill="none" stroke="black" d="M462.03,-711.61C450.87,-684.28 428.92,-630.52 415.75,-598.25"/>
<polygon fill="black" stroke="black" points="418.98,-596.91 411.96,-588.97 412.5,-599.55 418.98,-596.91"/>
</g>
<!-- u8&#45;&gt;n11 -->
<g id="edge14" class="edge">
<title>u8&#45;&gt;n11</title>
<path fill="none" stroke="black" d="M569,-527.04C569,-518.41 569,-509.55 569,-501.62"/>
<polygon fill="black" stroke="black" points="572.5,-501.47 569,-491.47 565.5,-501.47 572.5,-501.47"/>
</g>
</g>
</svg>
